<svg xmlns="http://www.w3.org/2000/svg" width="37" height="38" fill="none" stroke="#fff" stroke-miterlimit="10" xmlns:v="https://vecta.io/nano"><path d="M18.338 1.4A17.6 17.6 0 0 0 .738 19a17.6 17.6 0 0 0 17.6 17.6 17.6 17.6 0 0 0 17.6-17.6 17.6 17.6 0 0 0-17.6-17.6z"/><path d="M11.138 9.4a1.6 1.6 0 0 0-1.6 1.6 1.6 1.6 0 0 0 1.6 1.6 1.6 1.6 0 0 0 1.6-1.6 1.6 1.6 0 0 0-1.6-1.6z"/><path d="M9.538 15h3.2v12h-3.2V15zm13.2 0a5.18 5.18 0 0 0-3.6 1.453V15h-3.2v12h3.2v-6a2.81 2.81 0 0 1 2.8-2.8 2.81 2.81 0 0 1 2.8 2.8v2 4h3.2v-6.8a5.2 5.2 0 0 0-5.2-5.2z" stroke-linejoin="round"/></svg>